<?xml version="1.0" encoding="UTF-8" standalone="no"?>
<svg
   height="293.30mm"
   viewBox="0.0 0.0 263.90 293.30"
   width="263.90mm"
   version="1.1"
   id="svg2322"
   sodipodi:docname="ClosedBox.svg"
   inkscape:version="1.2.2 (732a01da63, 2022-12-09)"
   xml:space="preserve"
   xmlns:inkscape="http://www.inkscape.org/namespaces/inkscape"
   xmlns:sodipodi="http://sodipodi.sourceforge.net/DTD/sodipodi-0.dtd"
   xmlns="http://www.w3.org/2000/svg"
   xmlns:svg="http://www.w3.org/2000/svg"
   xmlns:rdf="http://www.w3.org/1999/02/22-rdf-syntax-ns#"
   xmlns:cc="http://creativecommons.org/ns#"
   xmlns:dc="http://purl.org/dc/elements/1.1/"><defs
     id="defs2326" /><sodipodi:namedview
     id="namedview2324"
     pagecolor="#ffffff"
     bordercolor="#000000"
     borderopacity="0.25"
     inkscape:showpageshadow="2"
     inkscape:pageopacity="0.0"
     inkscape:pagecheckerboard="0"
     inkscape:deskcolor="#d1d1d1"
     inkscape:document-units="mm"
     showgrid="false"
     inkscape:zoom="0.73430222"
     inkscape:cx="476.64298"
     inkscape:cy="554.2677"
     inkscape:window-width="1920"
     inkscape:window-height="1017"
     inkscape:window-x="-8"
     inkscape:window-y="-8"
     inkscape:window-maximized="1"
     inkscape:current-layer="svg2322" /><!--
ClosedBox - Fully closed box


This box is more of a building block than a finished item.
Use a vector graphics program (like Inkscape) to add holes or adjust the base
plate.

See BasedBox for variant with a base.


Created with Boxes.py (https://festi.info/boxes.py)
Creation date: 2024-05-16 09:02:13
Command line (remove spaces between dashes): boxes ClosedBox - -x=115 - -y=80 - -h=80 - -outside=0 - -labels=0
Url: http://boxes.hackerspace-bamberg.de/boxes.py/ClosedBox?FingerJoint_angle=90.0&FingerJoint_style=rectangular&FingerJoint_surroundingspaces=2.0&FingerJoint_bottom_lip=0.0&FingerJoint_edge_width=1.0&FingerJoint_extra_length=0.0&FingerJoint_finger=2.0&FingerJoint_play=0.0&FingerJoint_space=2.0&FingerJoint_width=1.0&x=115&y=80&h=80&outside=0&thickness=3.0&format=svg&tabs=0.0&qr_code=0&debug=0&labels=0&reference=100.0&inner_corners=loop&burn=0.1&language=fr&render=2
Url short: http://boxes.hackerspace-bamberg.de/boxes.py/ClosedBox?x=115&y=80&h=80&outside=0&labels=0
SettingsUrl: http://boxes.hackerspace-bamberg.de/boxes.py/ClosedBox?FingerJoint_angle=90.0&FingerJoint_style=rectangular&FingerJoint_surroundingspaces=2.0&FingerJoint_bottom_lip=0.0&FingerJoint_edge_width=1.0&FingerJoint_extra_length=0.0&FingerJoint_finger=2.0&FingerJoint_play=0.0&FingerJoint_space=2.0&FingerJoint_width=1.0&x=115&y=80&h=80&outside=0&thickness=3.0&format=svg&tabs=0.0&qr_code=0&debug=0&labels=0&reference=100.0&inner_corners=loop&burn=0.1&language=fr&render=2
SettingsUrl short: http://boxes.hackerspace-bamberg.de/boxes.py/ClosedBox?x=115&y=80&h=80&outside=0&labels=0
--><title
     id="title2295">ClosedBox</title><metadata
     id="metadata2297"><rdf:RDF><cc:Work><dc:title>ClosedBox</dc:title><dc:date>2024-05-16 09:02:13</dc:date><dc:source>http://boxes.hackerspace-bamberg.de/boxes.py/ClosedBox?FingerJoint_angle=90.0&amp;FingerJoint_style=rectangular&amp;FingerJoint_surroundingspaces=2.0&amp;FingerJoint_bottom_lip=0.0&amp;FingerJoint_edge_width=1.0&amp;FingerJoint_extra_length=0.0&amp;FingerJoint_finger=2.0&amp;FingerJoint_play=0.0&amp;FingerJoint_space=2.0&amp;FingerJoint_width=1.0&amp;x=115&amp;y=80&amp;h=80&amp;outside=0&amp;thickness=3.0&amp;format=svg&amp;tabs=0.0&amp;qr_code=0&amp;debug=0&amp;labels=0&amp;reference=100.0&amp;inner_corners=loop&amp;burn=0.1&amp;language=fr&amp;render=2</dc:source><dc:source>http://boxes.hackerspace-bamberg.de/boxes.py/ClosedBox?x=115&amp;y=80&amp;h=80&amp;outside=0&amp;labels=0</dc:source><dc:description>Fully closed box

This box is more of a building block than a finished item.
Use a vector graphics program (like Inkscape) to add holes or adjust the base
plate.

See BasedBox for variant with a base.

Created with Boxes.py (https://festi.info/boxes.py)
Command line: boxes ClosedBox --FingerJoint_angle=90.0 --FingerJoint_style=rectangular --FingerJoint_surroundingspaces=2.0 --FingerJoint_bottom_lip=0.0 --FingerJoint_edge_width=1.0 --FingerJoint_extra_length=0.0 --FingerJoint_finger=2.0 --FingerJoint_play=0.0 --FingerJoint_space=2.0 --FingerJoint_width=1.0 --x=115 --y=80 --h=80 --outside=0 --thickness=3.0 --format=svg --tabs=0.0 --qr_code=0 --debug=0 --labels=0 --reference=100.0 --inner_corners=loop --burn=0.1
Command line short: boxes ClosedBox --x=115 --y=80 --h=80 --outside=0 --labels=0
Url: http://boxes.hackerspace-bamberg.de/boxes.py/ClosedBox?FingerJoint_angle=90.0&amp;FingerJoint_style=rectangular&amp;FingerJoint_surroundingspaces=2.0&amp;FingerJoint_bottom_lip=0.0&amp;FingerJoint_edge_width=1.0&amp;FingerJoint_extra_length=0.0&amp;FingerJoint_finger=2.0&amp;FingerJoint_play=0.0&amp;FingerJoint_space=2.0&amp;FingerJoint_width=1.0&amp;x=115&amp;y=80&amp;h=80&amp;outside=0&amp;thickness=3.0&amp;format=svg&amp;tabs=0.0&amp;qr_code=0&amp;debug=0&amp;labels=0&amp;reference=100.0&amp;inner_corners=loop&amp;burn=0.1&amp;language=fr&amp;render=2
Url short: http://boxes.hackerspace-bamberg.de/boxes.py/ClosedBox?x=115&amp;y=80&amp;h=80&amp;outside=0&amp;labels=0
SettingsUrl: http://boxes.hackerspace-bamberg.de/boxes.py/ClosedBox?FingerJoint_angle=90.0&amp;FingerJoint_style=rectangular&amp;FingerJoint_surroundingspaces=2.0&amp;FingerJoint_bottom_lip=0.0&amp;FingerJoint_edge_width=1.0&amp;FingerJoint_extra_length=0.0&amp;FingerJoint_finger=2.0&amp;FingerJoint_play=0.0&amp;FingerJoint_space=2.0&amp;FingerJoint_width=1.0&amp;x=115&amp;y=80&amp;h=80&amp;outside=0&amp;thickness=3.0&amp;format=svg&amp;tabs=0.0&amp;qr_code=0&amp;debug=0&amp;labels=0&amp;reference=100.0&amp;inner_corners=loop&amp;burn=0.1&amp;language=fr&amp;render=2
SettingsUrl short: http://boxes.hackerspace-bamberg.de/boxes.py/ClosedBox?x=115&amp;y=80&amp;h=80&amp;outside=0&amp;labels=0
</dc:description></cc:Work></rdf:RDF></metadata><g
     id="p-1"
     style="fill:none;stroke-linecap:round;stroke-linejoin:round;stroke:#ff0000;stroke-opacity:1"><path
       d="M 13.100 271.600 H 19.600 C 19.655 271.600 19.700 271.555 19.700 271.500 V 268.600 C 19.700 268.500 19.600 268.600 19.700 268.600 H 25.500 C 25.600 268.600 25.500 268.500 25.500 268.600 V 271.500 C 25.500 271.555 25.545 271.600 25.600 271.600 H 31.600 C 31.655 271.600 31.700 271.555 31.700 271.500 V 268.600 C 31.700 268.500 31.600 268.600 31.700 268.600 H 37.500 C 37.600 268.600 37.500 268.500 37.500 268.600 V 271.500 C 37.500 271.555 37.545 271.600 37.600 271.600 H 43.600 C 43.655 271.600 43.700 271.555 43.700 271.500 V 268.600 C 43.700 268.500 43.600 268.600 43.700 268.600 H 49.500 C 49.600 268.600 49.500 268.500 49.500 268.600 V 271.500 C 49.500 271.555 49.545 271.600 49.600 271.600 H 55.600 C 55.655 271.600 55.700 271.555 55.700 271.500 V 268.600 C 55.700 268.500 55.600 268.600 55.700 268.600 H 61.500 C 61.600 268.600 61.500 268.500 61.500 268.600 V 271.500 C 61.500 271.555 61.545 271.600 61.600 271.600 H 67.600 C 67.655 271.600 67.700 271.555 67.700 271.500 V 268.600 C 67.700 268.500 67.600 268.600 67.700 268.600 H 73.500 C 73.600 268.600 73.500 268.500 73.500 268.600 V 271.500 C 73.500 271.555 73.545 271.600 73.600 271.600 H 79.600 C 79.655 271.600 79.700 271.555 79.700 271.500 V 268.600 C 79.700 268.500 79.600 268.600 79.700 268.600 H 85.500 C 85.600 268.600 85.500 268.500 85.500 268.600 V 271.500 C 85.500 271.555 85.545 271.600 85.600 271.600 H 91.600 C 91.655 271.600 91.700 271.555 91.700 271.500 V 268.600 C 91.700 268.500 91.600 268.600 91.700 268.600 H 97.500 C 97.600 268.600 97.500 268.500 97.500 268.600 V 271.500 C 97.500 271.555 97.545 271.600 97.600 271.600 H 103.600 C 103.655 271.600 103.700 271.555 103.700 271.500 V 268.600 C 103.700 268.500 103.600 268.600 103.700 268.600 H 109.500 C 109.600 268.600 109.500 268.500 109.500 268.600 V 271.500 C 109.500 271.555 109.545 271.600 109.600 271.600 H 115.600 C 115.655 271.600 115.700 271.555 115.700 271.500 V 268.600 C 115.700 268.500 115.600 268.600 115.700 268.600 H 121.500 C 121.600 268.600 121.500 268.500 121.500 268.600 V 271.500 C 121.500 271.555 121.545 271.600 121.600 271.600 H 128.100 H 131.100 C 131.155 271.600 131.200 271.555 131.200 271.500 V 268.500 V 261.500 C 131.200 261.445 131.155 261.400 131.100 261.400 H 128.200 C 128.100 261.400 128.200 261.500 128.200 261.400 V 255.600 C 128.200 255.500 128.100 255.600 128.200 255.600 H 131.100 C 131.155 255.600 131.200 255.555 131.200 255.500 V 249.500 C 131.200 249.445 131.155 249.400 131.100 249.400 H 128.200 C 128.100 249.400 128.200 249.500 128.200 249.400 V 243.600 C 128.200 243.500 128.100 243.600 128.200 243.600 H 131.100 C 131.155 243.600 131.200 243.555 131.200 243.500 V 237.500 C 131.200 237.445 131.155 237.400 131.100 237.400 H 128.200 C 128.100 237.400 128.200 237.500 128.200 237.400 V 231.600 C 128.200 231.500 128.100 231.600 128.200 231.600 H 131.100 C 131.155 231.600 131.200 231.555 131.200 231.500 V 225.500 C 131.200 225.445 131.155 225.400 131.100 225.400 H 128.200 C 128.100 225.400 128.200 225.500 128.200 225.400 V 219.600 C 128.200 219.500 128.100 219.600 128.200 219.600 H 131.100 C 131.155 219.600 131.200 219.555 131.200 219.500 V 213.500 C 131.200 213.445 131.155 213.400 131.100 213.400 H 128.200 C 128.100 213.400 128.200 213.500 128.200 213.400 V 207.600 C 128.200 207.500 128.100 207.600 128.200 207.600 H 131.100 C 131.155 207.600 131.200 207.555 131.200 207.500 V 201.500 C 131.200 201.445 131.155 201.400 131.100 201.400 H 128.200 C 128.100 201.400 128.200 201.500 128.200 201.400 V 195.600 C 128.200 195.500 128.100 195.600 128.200 195.600 H 131.100 C 131.155 195.600 131.200 195.555 131.200 195.500 V 188.500 V 185.500 C 131.200 185.445 131.155 185.400 131.100 185.400 H 128.100 H 121.600 C 121.545 185.400 121.500 185.445 121.500 185.500 V 188.400 C 121.500 188.500 121.600 188.400 121.500 188.400 H 115.700 C 115.600 188.400 115.700 188.500 115.700 188.400 V 185.500 C 115.700 185.445 115.655 185.400 115.600 185.400 H 109.600 C 109.545 185.400 109.500 185.445 109.500 185.500 V 188.400 C 109.500 188.500 109.600 188.400 109.500 188.400 H 103.700 C 103.600 188.400 103.700 188.500 103.700 188.400 V 185.500 C 103.700 185.445 103.655 185.400 103.600 185.400 H 97.600 C 97.545 185.400 97.500 185.445 97.500 185.500 V 188.400 C 97.500 188.500 97.600 188.400 97.500 188.400 H 91.700 C 91.600 188.400 91.700 188.500 91.700 188.400 V 185.500 C 91.700 185.445 91.655 185.400 91.600 185.400 H 85.600 C 85.545 185.400 85.500 185.445 85.500 185.500 V 188.400 C 85.500 188.500 85.600 188.400 85.500 188.400 H 79.700 C 79.600 188.400 79.700 188.500 79.700 188.400 V 185.500 C 79.700 185.445 79.655 185.400 79.600 185.400 H 73.600 C 73.545 185.400 73.500 185.445 73.500 185.500 V 188.400 C 73.500 188.500 73.600 188.400 73.500 188.400 H 67.700 C 67.600 188.400 67.700 188.500 67.700 188.400 V 185.500 C 67.700 185.445 67.655 185.400 67.600 185.400 H 61.600 C 61.545 185.400 61.500 185.445 61.500 185.500 V 188.400 C 61.500 188.500 61.600 188.400 61.500 188.400 H 55.700 C 55.600 188.400 55.700 188.500 55.700 188.400 V 185.500 C 55.700 185.445 55.655 185.400 55.600 185.400 H 49.600 C 49.545 185.400 49.500 185.445 49.500 185.500 V 188.400 C 49.500 188.500 49.600 188.400 49.500 188.400 H 43.700 C 43.600 188.400 43.700 188.500 43.700 188.400 V 185.500 C 43.700 185.445 43.655 185.400 43.600 185.400 H 37.600 C 37.545 185.400 37.500 185.445 37.500 185.500 V 188.400 C 37.500 188.500 37.600 188.400 37.500 188.400 H 31.700 C 31.600 188.400 31.700 188.500 31.700 188.400 V 185.500 C 31.700 185.445 31.655 185.400 31.600 185.400 H 25.600 C 25.545 185.400 25.500 185.445 25.500 185.500 V 188.400 C 25.500 188.500 25.600 188.400 25.500 188.400 H 19.700 C 19.600 188.400 19.700 188.500 19.700 188.400 V 185.500 C 19.700 185.445 19.655 185.400 19.600 185.400 H 13.100 H 10.100 C 10.045 185.400 10.000 185.445 10.000 185.500 V 188.500 V 195.500 C 10.000 195.555 10.045 195.600 10.100 195.600 H 13.000 C 13.100 195.600 13.000 195.500 13.000 195.600 V 201.400 C 13.000 201.500 13.100 201.400 13.000 201.400 H 10.100 C 10.045 201.400 10.000 201.445 10.000 201.500 V 207.500 C 10.000 207.555 10.045 207.600 10.100 207.600 H 13.000 C 13.100 207.600 13.000 207.500 13.000 207.600 V 213.400 C 13.000 213.500 13.100 213.400 13.000 213.400 H 10.100 C 10.045 213.400 10.000 213.445 10.000 213.500 V 219.500 C 10.000 219.555 10.045 219.600 10.100 219.600 H 13.000 C 13.100 219.600 13.000 219.500 13.000 219.600 V 225.400 C 13.000 225.500 13.100 225.400 13.000 225.400 H 10.100 C 10.045 225.400 10.000 225.445 10.000 225.500 V 231.500 C 10.000 231.555 10.045 231.600 10.100 231.600 H 13.000 C 13.100 231.600 13.000 231.500 13.000 231.600 V 237.400 C 13.000 237.500 13.100 237.400 13.000 237.400 H 10.100 C 10.045 237.400 10.000 237.445 10.000 237.500 V 243.500 C 10.000 243.555 10.045 243.600 10.100 243.600 H 13.000 C 13.100 243.600 13.000 243.500 13.000 243.600 V 249.400 C 13.000 249.500 13.100 249.400 13.000 249.400 H 10.100 C 10.045 249.400 10.000 249.445 10.000 249.500 V 255.500 C 10.000 255.555 10.045 255.600 10.100 255.600 H 13.000 C 13.100 255.600 13.000 255.500 13.000 255.600 V 261.400 C 13.000 261.500 13.100 261.400 13.000 261.400 H 10.100 C 10.045 261.400 10.000 261.445 10.000 261.500 V 268.500 V 271.500 C 10.000 271.555 10.045 271.600 10.100 271.600 H 13.100 Z"
       stroke="rgb(0,0,0)"
       stroke-width="0.20"
       id="path2304"
       style="stroke:#ff0000;stroke-opacity:1" /></g><g
     id="p-2"
     style="fill:none;stroke-linecap:round;stroke-linejoin:round;stroke:#ff0000;stroke-opacity:1"><path
       d="M 135.800 271.600 H 142.800 C 142.855 271.600 142.900 271.555 142.900 271.500 V 268.600 C 142.900 268.500 142.800 268.600 142.900 268.600 H 148.700 C 148.800 268.600 148.700 268.500 148.700 268.600 V 271.500 C 148.700 271.555 148.745 271.600 148.800 271.600 H 154.800 C 154.855 271.600 154.900 271.555 154.900 271.500 V 268.600 C 154.900 268.500 154.800 268.600 154.900 268.600 H 160.700 C 160.800 268.600 160.700 268.500 160.700 268.600 V 271.500 C 160.700 271.555 160.745 271.600 160.800 271.600 H 166.800 C 166.855 271.600 166.900 271.555 166.900 271.500 V 268.600 C 166.900 268.500 166.800 268.600 166.900 268.600 H 172.700 C 172.800 268.600 172.700 268.500 172.700 268.600 V 271.500 C 172.700 271.555 172.745 271.600 172.800 271.600 H 178.800 C 178.855 271.600 178.900 271.555 178.900 271.500 V 268.600 C 178.900 268.500 178.800 268.600 178.900 268.600 H 184.700 C 184.800 268.600 184.700 268.500 184.700 268.600 V 271.500 C 184.700 271.555 184.745 271.600 184.800 271.600 H 190.800 C 190.855 271.600 190.900 271.555 190.900 271.500 V 268.600 C 190.900 268.500 190.800 268.600 190.900 268.600 H 196.700 C 196.800 268.600 196.700 268.500 196.700 268.600 V 271.500 C 196.700 271.555 196.745 271.600 196.800 271.600 H 202.800 C 202.855 271.600 202.900 271.555 202.900 271.500 V 268.600 C 202.900 268.500 202.800 268.600 202.900 268.600 H 208.700 C 208.800 268.600 208.700 268.500 208.700 268.600 V 271.500 C 208.700 271.555 208.745 271.600 208.800 271.600 H 215.800 C 215.855 271.600 215.900 271.555 215.900 271.500 V 268.500 V 261.600 C 215.900 261.500 215.800 261.600 215.900 261.600 H 218.800 C 218.855 261.600 218.900 261.555 218.900 261.500 V 255.500 C 218.900 255.445 218.855 255.400 218.800 255.400 H 215.900 C 215.800 255.400 215.900 255.500 215.900 255.400 V 249.600 C 215.900 249.500 215.800 249.600 215.900 249.600 H 218.800 C 218.855 249.600 218.900 249.555 218.900 249.500 V 243.500 C 218.900 243.445 218.855 243.400 218.800 243.400 H 215.900 C 215.800 243.400 215.900 243.500 215.900 243.400 V 237.600 C 215.900 237.500 215.800 237.600 215.900 237.600 H 218.800 C 218.855 237.600 218.900 237.555 218.900 237.500 V 231.500 C 218.900 231.445 218.855 231.400 218.800 231.400 H 215.900 C 215.800 231.400 215.900 231.500 215.900 231.400 V 225.600 C 215.900 225.500 215.800 225.600 215.900 225.600 H 218.800 C 218.855 225.600 218.900 225.555 218.900 225.500 V 219.500 C 218.900 219.445 218.855 219.400 218.800 219.400 H 215.900 C 215.800 219.400 215.900 219.500 215.900 219.400 V 213.600 C 215.900 213.500 215.800 213.600 215.900 213.600 H 218.800 C 218.855 213.600 218.900 213.555 218.900 213.500 V 207.500 C 218.900 207.445 218.855 207.400 218.800 207.400 H 215.900 C 215.800 207.400 215.900 207.500 215.900 207.400 V 201.600 C 215.900 201.500 215.800 201.600 215.900 201.600 H 218.800 C 218.855 201.600 218.900 201.555 218.900 201.500 V 195.500 C 218.900 195.445 218.855 195.400 218.800 195.400 H 215.900 C 215.800 195.400 215.900 195.500 215.900 195.400 V 188.500 V 185.500 C 215.900 185.445 215.855 185.400 215.800 185.400 H 208.800 C 208.745 185.400 208.700 185.445 208.700 185.500 V 188.400 C 208.700 188.500 208.800 188.400 208.700 188.400 H 202.900 C 202.800 188.400 202.900 188.500 202.900 188.400 V 185.500 C 202.900 185.445 202.855 185.400 202.800 185.400 H 196.800 C 196.745 185.400 196.700 185.445 196.700 185.500 V 188.400 C 196.700 188.500 196.800 188.400 196.700 188.400 H 190.900 C 190.800 188.400 190.900 188.500 190.900 188.400 V 185.500 C 190.900 185.445 190.855 185.400 190.800 185.400 H 184.800 C 184.745 185.400 184.700 185.445 184.700 185.500 V 188.400 C 184.700 188.500 184.800 188.400 184.700 188.400 H 178.900 C 178.800 188.400 178.900 188.500 178.900 188.400 V 185.500 C 178.900 185.445 178.855 185.400 178.800 185.400 H 172.800 C 172.745 185.400 172.700 185.445 172.700 185.500 V 188.400 C 172.700 188.500 172.800 188.400 172.700 188.400 H 166.900 C 166.800 188.400 166.900 188.500 166.900 188.400 V 185.500 C 166.900 185.445 166.855 185.400 166.800 185.400 H 160.800 C 160.745 185.400 160.700 185.445 160.700 185.500 V 188.400 C 160.700 188.500 160.800 188.400 160.700 188.400 H 154.900 C 154.800 188.400 154.900 188.500 154.900 188.400 V 185.500 C 154.900 185.445 154.855 185.400 154.800 185.400 H 148.800 C 148.745 185.400 148.700 185.445 148.700 185.500 V 188.400 C 148.700 188.500 148.800 188.400 148.700 188.400 H 142.900 C 142.800 188.400 142.900 188.500 142.900 188.400 V 185.500 C 142.900 185.445 142.855 185.400 142.800 185.400 H 135.800 C 135.745 185.400 135.700 185.445 135.700 185.500 V 188.500 V 195.400 C 135.700 195.500 135.800 195.400 135.700 195.400 H 132.800 C 132.745 195.400 132.700 195.445 132.700 195.500 V 201.500 C 132.700 201.555 132.745 201.600 132.800 201.600 H 135.700 C 135.800 201.600 135.700 201.500 135.700 201.600 V 207.400 C 135.700 207.500 135.800 207.400 135.700 207.400 H 132.800 C 132.745 207.400 132.700 207.445 132.700 207.500 V 213.500 C 132.700 213.555 132.745 213.600 132.800 213.600 H 135.700 C 135.800 213.600 135.700 213.500 135.700 213.600 V 219.400 C 135.700 219.500 135.800 219.400 135.700 219.400 H 132.800 C 132.745 219.400 132.700 219.445 132.700 219.500 V 225.500 C 132.700 225.555 132.745 225.600 132.800 225.600 H 135.700 C 135.800 225.600 135.700 225.500 135.700 225.600 V 231.400 C 135.700 231.500 135.800 231.400 135.700 231.400 H 132.800 C 132.745 231.400 132.700 231.445 132.700 231.500 V 237.500 C 132.700 237.555 132.745 237.600 132.800 237.600 H 135.700 C 135.800 237.600 135.700 237.500 135.700 237.600 V 243.400 C 135.700 243.500 135.800 243.400 135.700 243.400 H 132.800 C 132.745 243.400 132.700 243.445 132.700 243.500 V 249.500 C 132.700 249.555 132.745 249.600 132.800 249.600 H 135.700 C 135.800 249.600 135.700 249.500 135.700 249.600 V 255.400 C 135.700 255.500 135.800 255.400 135.700 255.400 H 132.800 C 132.745 255.400 132.700 255.445 132.700 255.500 V 261.500 C 132.700 261.555 132.745 261.600 132.800 261.600 H 135.700 C 135.800 261.600 135.700 261.500 135.700 261.600 V 268.500 V 271.500 C 135.700 271.555 135.745 271.600 135.800 271.600 Z"
       stroke="rgb(0,0,0)"
       stroke-width="0.20"
       id="path2307"
       style="stroke:#ff0000;stroke-opacity:1" /></g><g
     id="p-3"
     style="fill:none;stroke-linecap:round;stroke-linejoin:round;stroke:#ff0000;stroke-opacity:1"><path
       d="M 135.800 183.900 H 142.800 C 142.855 183.900 142.900 183.855 142.900 183.800 V 180.900 C 142.900 180.800 142.800 180.900 142.900 180.900 H 148.700 C 148.800 180.900 148.700 180.800 148.700 180.900 V 183.800 C 148.700 183.855 148.745 183.900 148.800 183.900 H 154.800 C 154.855 183.900 154.900 183.855 154.900 183.800 V 180.900 C 154.900 180.800 154.800 180.900 154.900 180.900 H 160.700 C 160.800 180.900 160.700 180.800 160.700 180.900 V 183.800 C 160.700 183.855 160.745 183.900 160.800 183.900 H 166.800 C 166.855 183.900 166.900 183.855 166.900 183.800 V 180.900 C 166.900 180.800 166.800 180.900 166.900 180.900 H 172.700 C 172.800 180.900 172.700 180.800 172.700 180.900 V 183.800 C 172.700 183.855 172.745 183.900 172.800 183.900 H 178.800 C 178.855 183.900 178.900 183.855 178.900 183.800 V 180.900 C 178.900 180.800 178.800 180.900 178.900 180.900 H 184.700 C 184.800 180.900 184.700 180.800 184.700 180.900 V 183.800 C 184.700 183.855 184.745 183.900 184.800 183.900 H 190.800 C 190.855 183.900 190.900 183.855 190.900 183.800 V 180.900 C 190.900 180.800 190.800 180.900 190.900 180.900 H 196.700 C 196.800 180.900 196.700 180.800 196.700 180.900 V 183.800 C 196.700 183.855 196.745 183.900 196.800 183.900 H 202.800 C 202.855 183.900 202.900 183.855 202.900 183.800 V 180.900 C 202.900 180.800 202.800 180.900 202.900 180.900 H 208.700 C 208.800 180.900 208.700 180.800 208.700 180.900 V 183.800 C 208.700 183.855 208.745 183.900 208.800 183.900 H 215.800 C 215.855 183.900 215.900 183.855 215.900 183.800 V 180.800 V 173.900 C 215.900 173.800 215.800 173.900 215.900 173.900 H 218.800 C 218.855 173.900 218.900 173.855 218.900 173.800 V 167.800 C 218.900 167.745 218.855 167.700 218.800 167.700 H 215.900 C 215.800 167.700 215.900 167.800 215.900 167.700 V 161.900 C 215.900 161.800 215.800 161.900 215.900 161.900 H 218.800 C 218.855 161.900 218.900 161.855 218.900 161.800 V 155.800 C 218.900 155.745 218.855 155.700 218.800 155.700 H 215.900 C 215.800 155.700 215.900 155.800 215.900 155.700 V 149.900 C 215.900 149.800 215.800 149.900 215.900 149.900 H 218.800 C 218.855 149.900 218.900 149.855 218.900 149.800 V 143.800 C 218.900 143.745 218.855 143.700 218.800 143.700 H 215.900 C 215.800 143.700 215.900 143.800 215.900 143.700 V 137.900 C 215.900 137.800 215.800 137.900 215.900 137.900 H 218.800 C 218.855 137.900 218.900 137.855 218.900 137.800 V 131.800 C 218.900 131.745 218.855 131.700 218.800 131.700 H 215.900 C 215.800 131.700 215.900 131.800 215.900 131.700 V 125.900 C 215.900 125.800 215.800 125.900 215.900 125.900 H 218.800 C 218.855 125.900 218.900 125.855 218.900 125.800 V 119.800 C 218.900 119.745 218.855 119.700 218.800 119.700 H 215.900 C 215.800 119.700 215.900 119.800 215.900 119.700 V 113.900 C 215.900 113.800 215.800 113.900 215.900 113.900 H 218.800 C 218.855 113.900 218.900 113.855 218.900 113.800 V 107.800 C 218.900 107.745 218.855 107.700 218.800 107.700 H 215.900 C 215.800 107.700 215.900 107.800 215.900 107.700 V 100.800 V 97.800 C 215.900 97.745 215.855 97.700 215.800 97.700 H 208.800 C 208.745 97.700 208.700 97.745 208.700 97.800 V 100.700 C 208.700 100.800 208.800 100.700 208.700 100.700 H 202.900 C 202.800 100.700 202.900 100.800 202.900 100.700 V 97.800 C 202.900 97.745 202.855 97.700 202.800 97.700 H 196.800 C 196.745 97.700 196.700 97.745 196.700 97.800 V 100.700 C 196.700 100.800 196.800 100.700 196.700 100.700 H 190.900 C 190.800 100.700 190.900 100.800 190.900 100.700 V 97.800 C 190.900 97.745 190.855 97.700 190.800 97.700 H 184.800 C 184.745 97.700 184.700 97.745 184.700 97.800 V 100.700 C 184.700 100.800 184.800 100.700 184.700 100.700 H 178.900 C 178.800 100.700 178.900 100.800 178.900 100.700 V 97.800 C 178.900 97.745 178.855 97.700 178.800 97.700 H 172.800 C 172.745 97.700 172.700 97.745 172.700 97.800 V 100.700 C 172.700 100.800 172.800 100.700 172.700 100.700 H 166.900 C 166.800 100.700 166.900 100.800 166.900 100.700 V 97.800 C 166.900 97.745 166.855 97.700 166.800 97.700 H 160.800 C 160.745 97.700 160.700 97.745 160.700 97.800 V 100.700 C 160.700 100.800 160.800 100.700 160.700 100.700 H 154.900 C 154.800 100.700 154.900 100.800 154.900 100.700 V 97.800 C 154.900 97.745 154.855 97.700 154.800 97.700 H 148.800 C 148.745 97.700 148.700 97.745 148.700 97.800 V 100.700 C 148.700 100.800 148.800 100.700 148.700 100.700 H 142.900 C 142.800 100.700 142.900 100.800 142.900 100.700 V 97.800 C 142.900 97.745 142.855 97.700 142.800 97.700 H 135.800 C 135.745 97.700 135.700 97.745 135.700 97.800 V 100.800 V 107.700 C 135.700 107.800 135.800 107.700 135.700 107.700 H 132.800 C 132.745 107.700 132.700 107.745 132.700 107.800 V 113.800 C 132.700 113.855 132.745 113.900 132.800 113.900 H 135.700 C 135.800 113.900 135.700 113.800 135.700 113.900 V 119.700 C 135.700 119.800 135.800 119.700 135.700 119.700 H 132.800 C 132.745 119.700 132.700 119.745 132.700 119.800 V 125.800 C 132.700 125.855 132.745 125.900 132.800 125.900 H 135.700 C 135.800 125.900 135.700 125.800 135.700 125.900 V 131.700 C 135.700 131.800 135.800 131.700 135.700 131.700 H 132.800 C 132.745 131.700 132.700 131.745 132.700 131.800 V 137.800 C 132.700 137.855 132.745 137.900 132.800 137.900 H 135.700 C 135.800 137.900 135.700 137.800 135.700 137.900 V 143.700 C 135.700 143.800 135.800 143.700 135.700 143.700 H 132.800 C 132.745 143.700 132.700 143.745 132.700 143.800 V 149.800 C 132.700 149.855 132.745 149.900 132.800 149.900 H 135.700 C 135.800 149.900 135.700 149.800 135.700 149.900 V 155.700 C 135.700 155.800 135.800 155.700 135.700 155.700 H 132.800 C 132.745 155.700 132.700 155.745 132.700 155.800 V 161.800 C 132.700 161.855 132.745 161.900 132.800 161.900 H 135.700 C 135.800 161.900 135.700 161.800 135.700 161.900 V 167.700 C 135.700 167.800 135.800 167.700 135.700 167.700 H 132.800 C 132.745 167.700 132.700 167.745 132.700 167.800 V 173.800 C 132.700 173.855 132.745 173.900 132.800 173.900 H 135.700 C 135.800 173.900 135.700 173.800 135.700 173.900 V 180.800 V 183.800 C 135.700 183.855 135.745 183.900 135.800 183.900 Z"
       stroke="rgb(0,0,0)"
       stroke-width="0.20"
       id="path2310"
       style="stroke:#ff0000;stroke-opacity:1" /></g><g
     id="p-4"
     style="fill:none;stroke-linecap:round;stroke-linejoin:round;stroke:#ff0000;stroke-opacity:1"><path
       d="M 13.100 183.900 H 19.600 C 19.655 183.900 19.700 183.855 19.700 183.800 V 180.900 C 19.700 180.800 19.600 180.900 19.700 180.900 H 25.500 C 25.600 180.900 25.500 180.800 25.500 180.900 V 183.800 C 25.500 183.855 25.545 183.900 25.600 183.900 H 31.600 C 31.655 183.900 31.700 183.855 31.700 183.800 V 180.900 C 31.700 180.800 31.600 180.900 31.700 180.900 H 37.500 C 37.600 180.900 37.500 180.800 37.500 180.900 V 183.800 C 37.500 183.855 37.545 183.900 37.600 183.900 H 43.600 C 43.655 183.900 43.700 183.855 43.700 183.800 V 180.900 C 43.700 180.800 43.600 180.900 43.700 180.900 H 49.500 C 49.600 180.900 49.500 180.800 49.500 180.900 V 183.800 C 49.500 183.855 49.545 183.900 49.600 183.900 H 55.600 C 55.655 183.900 55.700 183.855 55.700 183.800 V 180.900 C 55.700 180.800 55.600 180.900 55.700 180.900 H 61.500 C 61.600 180.900 61.500 180.800 61.500 180.900 V 183.800 C 61.500 183.855 61.545 183.900 61.600 183.900 H 67.600 C 67.655 183.900 67.700 183.855 67.700 183.800 V 180.900 C 67.700 180.800 67.600 180.900 67.700 180.900 H 73.500 C 73.600 180.900 73.500 180.800 73.500 180.900 V 183.800 C 73.500 183.855 73.545 183.900 73.600 183.900 H 79.600 C 79.655 183.900 79.700 183.855 79.700 183.800 V 180.900 C 79.700 180.800 79.600 180.900 79.700 180.900 H 85.500 C 85.600 180.900 85.500 180.800 85.500 180.900 V 183.800 C 85.500 183.855 85.545 183.900 85.600 183.900 H 91.600 C 91.655 183.900 91.700 183.855 91.700 183.800 V 180.900 C 91.700 180.800 91.600 180.900 91.700 180.900 H 97.500 C 97.600 180.900 97.500 180.800 97.500 180.900 V 183.800 C 97.500 183.855 97.545 183.900 97.600 183.900 H 103.600 C 103.655 183.900 103.700 183.855 103.700 183.800 V 180.900 C 103.700 180.800 103.600 180.900 103.700 180.900 H 109.500 C 109.600 180.900 109.500 180.800 109.500 180.900 V 183.800 C 109.500 183.855 109.545 183.900 109.600 183.900 H 115.600 C 115.655 183.900 115.700 183.855 115.700 183.800 V 180.900 C 115.700 180.800 115.600 180.900 115.700 180.900 H 121.500 C 121.600 180.900 121.500 180.800 121.500 180.900 V 183.800 C 121.500 183.855 121.545 183.900 121.600 183.900 H 128.100 H 131.100 C 131.155 183.900 131.200 183.855 131.200 183.800 V 180.800 V 173.800 C 131.200 173.745 131.155 173.700 131.100 173.700 H 128.200 C 128.100 173.700 128.200 173.800 128.200 173.700 V 167.900 C 128.200 167.800 128.100 167.900 128.200 167.900 H 131.100 C 131.155 167.900 131.200 167.855 131.200 167.800 V 161.800 C 131.200 161.745 131.155 161.700 131.100 161.700 H 128.200 C 128.100 161.700 128.200 161.800 128.200 161.700 V 155.900 C 128.200 155.800 128.100 155.900 128.200 155.900 H 131.100 C 131.155 155.900 131.200 155.855 131.200 155.800 V 149.800 C 131.200 149.745 131.155 149.700 131.100 149.700 H 128.200 C 128.100 149.700 128.200 149.800 128.200 149.700 V 143.900 C 128.200 143.800 128.100 143.900 128.200 143.900 H 131.100 C 131.155 143.900 131.200 143.855 131.200 143.800 V 137.800 C 131.200 137.745 131.155 137.700 131.100 137.700 H 128.200 C 128.100 137.700 128.200 137.800 128.200 137.700 V 131.900 C 128.200 131.800 128.100 131.900 128.200 131.900 H 131.100 C 131.155 131.900 131.200 131.855 131.200 131.800 V 125.800 C 131.200 125.745 131.155 125.700 131.100 125.700 H 128.200 C 128.100 125.700 128.200 125.800 128.200 125.700 V 119.900 C 128.200 119.800 128.100 119.900 128.200 119.900 H 131.100 C 131.155 119.900 131.200 119.855 131.200 119.800 V 113.800 C 131.200 113.745 131.155 113.700 131.100 113.700 H 128.200 C 128.100 113.700 128.200 113.800 128.200 113.700 V 107.900 C 128.200 107.800 128.100 107.900 128.200 107.900 H 131.100 C 131.155 107.900 131.200 107.855 131.200 107.800 V 100.800 V 97.800 C 131.200 97.745 131.155 97.700 131.100 97.700 H 128.100 H 121.600 C 121.545 97.700 121.500 97.745 121.500 97.800 V 100.700 C 121.500 100.800 121.600 100.700 121.500 100.700 H 115.700 C 115.600 100.700 115.700 100.800 115.700 100.700 V 97.800 C 115.700 97.745 115.655 97.700 115.600 97.700 H 109.600 C 109.545 97.700 109.500 97.745 109.500 97.800 V 100.700 C 109.500 100.800 109.600 100.700 109.500 100.700 H 103.700 C 103.600 100.700 103.700 100.800 103.700 100.700 V 97.800 C 103.700 97.745 103.655 97.700 103.600 97.700 H 97.600 C 97.545 97.700 97.500 97.745 97.500 97.800 V 100.700 C 97.500 100.800 97.600 100.700 97.500 100.700 H 91.700 C 91.600 100.700 91.700 100.800 91.700 100.700 V 97.800 C 91.700 97.745 91.655 97.700 91.600 97.700 H 85.600 C 85.545 97.700 85.500 97.745 85.500 97.800 V 100.700 C 85.500 100.800 85.600 100.700 85.500 100.700 H 79.700 C 79.600 100.700 79.700 100.800 79.700 100.700 V 97.800 C 79.700 97.745 79.655 97.700 79.600 97.700 H 73.600 C 73.545 97.700 73.500 97.745 73.500 97.800 V 100.700 C 73.500 100.800 73.600 100.700 73.500 100.700 H 67.700 C 67.600 100.700 67.700 100.800 67.700 100.700 V 97.800 C 67.700 97.745 67.655 97.700 67.600 97.700 H 61.600 C 61.545 97.700 61.500 97.745 61.500 97.800 V 100.700 C 61.500 100.800 61.600 100.700 61.500 100.700 H 55.700 C 55.600 100.700 55.700 100.800 55.700 100.700 V 97.800 C 55.700 97.745 55.655 97.700 55.600 97.700 H 49.600 C 49.545 97.700 49.500 97.745 49.500 97.800 V 100.700 C 49.500 100.800 49.600 100.700 49.500 100.700 H 43.700 C 43.600 100.700 43.700 100.800 43.700 100.700 V 97.800 C 43.700 97.745 43.655 97.700 43.600 97.700 H 37.600 C 37.545 97.700 37.500 97.745 37.500 97.800 V 100.700 C 37.500 100.800 37.600 100.700 37.500 100.700 H 31.700 C 31.600 100.700 31.700 100.800 31.700 100.700 V 97.800 C 31.700 97.745 31.655 97.700 31.600 97.700 H 25.600 C 25.545 97.700 25.500 97.745 25.500 97.800 V 100.700 C 25.500 100.800 25.600 100.700 25.500 100.700 H 19.700 C 19.600 100.700 19.700 100.800 19.700 100.700 V 97.800 C 19.700 97.745 19.655 97.700 19.600 97.700 H 13.100 H 10.100 C 10.045 97.700 10.000 97.745 10.000 97.800 V 100.800 V 107.800 C 10.000 107.855 10.045 107.900 10.100 107.900 H 13.000 C 13.100 107.900 13.000 107.800 13.000 107.900 V 113.700 C 13.000 113.800 13.100 113.700 13.000 113.700 H 10.100 C 10.045 113.700 10.000 113.745 10.000 113.800 V 119.800 C 10.000 119.855 10.045 119.900 10.100 119.900 H 13.000 C 13.100 119.900 13.000 119.800 13.000 119.900 V 125.700 C 13.000 125.800 13.100 125.700 13.000 125.700 H 10.100 C 10.045 125.700 10.000 125.745 10.000 125.800 V 131.800 C 10.000 131.855 10.045 131.900 10.100 131.900 H 13.000 C 13.100 131.900 13.000 131.800 13.000 131.900 V 137.700 C 13.000 137.800 13.100 137.700 13.000 137.700 H 10.100 C 10.045 137.700 10.000 137.745 10.000 137.800 V 143.800 C 10.000 143.855 10.045 143.900 10.100 143.900 H 13.000 C 13.100 143.900 13.000 143.800 13.000 143.900 V 149.700 C 13.000 149.800 13.100 149.700 13.000 149.700 H 10.100 C 10.045 149.700 10.000 149.745 10.000 149.800 V 155.800 C 10.000 155.855 10.045 155.900 10.100 155.900 H 13.000 C 13.100 155.900 13.000 155.800 13.000 155.900 V 161.700 C 13.000 161.800 13.100 161.700 13.000 161.700 H 10.100 C 10.045 161.700 10.000 161.745 10.000 161.800 V 167.800 C 10.000 167.855 10.045 167.900 10.100 167.900 H 13.000 C 13.100 167.900 13.000 167.800 13.000 167.900 V 173.700 C 13.000 173.800 13.100 173.700 13.000 173.700 H 10.100 C 10.045 173.700 10.000 173.745 10.000 173.800 V 180.800 V 183.800 C 10.000 183.855 10.045 183.900 10.100 183.900 H 13.100 Z"
       stroke="rgb(0,0,0)"
       stroke-width="0.20"
       id="path2313"
       style="stroke:#ff0000;stroke-opacity:1" /></g><g
     id="p-6"
     style="fill:none;stroke-linecap:round;stroke-linejoin:round;stroke:#ff0000;stroke-opacity:1"><path
       d="m 14.732683,92.479361 h 6.4 c 0.1,0 0,-0.1 0,0 v 2.9 c 0,0.055 0.045,0.1 0.1,0.1 h 6 c 0.055,0 0.1,-0.045 0.1,-0.1 v -2.9 c 0,-0.1 -0.1,0 0,0 h 5.8 c 0.1,0 0,-0.1 0,0 v 2.9 c 0,0.055 0.045,0.1 0.1,0.1 h 6 c 0.055,0 0.1,-0.045 0.1,-0.1 v -2.9 c 0,-0.1 -0.1,0 0,0 h 5.8 c 0.1,0 0,-0.1 0,0 v 2.9 c 0,0.055 0.045,0.1 0.1,0.1 h 6 c 0.055,0 0.1,-0.045 0.1,-0.1 v -2.9 c 0,-0.1 -0.1,0 0,0 h 5.8 c 0.1,0 0,-0.1 0,0 v 2.9 c 0,0.055 0.045,0.1 0.1,0.1 h 6 c 0.055,0 0.1,-0.045 0.1,-0.1 v -2.9 c 0,-0.1 -0.1,0 0,0 h 5.8 c 0.1,0 0,-0.1 0,0 v 2.9 c 0,0.055 0.045,0.1 0.1,0.1 h 6 c 0.055,0 0.1,-0.045 0.1,-0.1 v -2.9 c 0,-0.1 -0.1,0 0,0 h 5.8 c 0.1,0 0,-0.1 0,0 v 2.9 c 0,0.055 0.045,0.1 0.1,0.1 h 6 c 0.055,0 0.1,-0.045 0.1,-0.1 v -2.9 c 0,-0.1 -0.1,0 0,0 h 5.8 c 0.1,0 0,-0.1 0,0 v 2.9 c 0,0.055 0.045,0.1 0.1,0.1 h 6 c 0.055,0 0.1,-0.045 0.1,-0.1 v -2.9 c 0,-0.1 -0.1,0 0,0 h 5.799997 c 0.1,0 0,-0.1 0,0 v 2.9 c 0,0.055 0.045,0.1 0.1,0.1 h 6 c 0.055,0 0.1,-0.045 0.1,-0.1 v -2.9 c 0,-0.1 -0.1,0 0,0 h 5.8 c 0.1,0 0,-0.1 0,0 v 2.9 c 0,0.055 0.045,0.1 0.1,0.1 h 6 c 0.055,0 0.1,-0.045 0.1,-0.1 v -2.9 c 0,-0.1 -0.1,0 0,0 h 6.4 c 0.055,0 0.1,-0.045 0.1,-0.1 v -6.9 c 0,-0.1 -0.1,0 0,0 h 2.9 c 0.055,0 0.1,-0.045 0.1,-0.1 v -6 c 0,-0.055 -0.045,-0.1 -0.1,-0.1 h -2.9 c -0.1,0 0,0.1 0,0 v -5.8 c 0,-0.1 -0.1,0 0,0 h 2.9 c 0.055,0 0.1,-0.045 0.1,-0.1 v -6 c 0,-0.055 -0.045,-0.1 -0.1,-0.1 h -2.9 c -0.1,0 0,0.1 0,0 v -5.8 c 0,-0.1 -0.1,0 0,0 h 2.9 c 0.055,0 0.1,-0.045 0.1,-0.1 v -6 c 0,-0.055 -0.045,-0.1 -0.1,-0.1 h -2.9 c -0.1,0 0,0.1 0,0 v -5.8 c 0,-0.1 -0.1,0 0,0 h 2.9 c 0.055,0 0.1,-0.045 0.1,-0.1 v -6 c 0,-0.055 -0.045,-0.1 -0.1,-0.1 h -2.9 c -0.1,0 0,0.1 0,0 v -5.8 c 0,-0.1 -0.1,0 0,0 h 2.9 c 0.055,0 0.1,-0.045 0.1,-0.1 v -6 c 0,-0.055 -0.045,-0.1 -0.1,-0.1 h -2.9 c -0.1,0 0,0.1 0,0 v -5.8 c 0,-0.1 -0.1,0 0,0 h 2.9 c 0.055,0 0.1,-0.045 0.1,-0.1 v -6 c 0,-0.055 -0.045,-0.1 -0.1,-0.1 h -2.9 c -0.1,0 0,0.1 0,0 v -6.9 c 0,-0.055 -0.045,-0.1 -0.1,-0.1 h -6.4 c -0.1,0 0,0.1 0,0 V 9.3793612 c 0,-0.055 -0.045,-0.1 -0.1,-0.1 h -6 c -0.055,0 -0.1,0.045 -0.1,0.1 v 2.8999998 c 0,0.1 0.1,0 0,0 h -5.8 c -0.1,0 0,0.1 0,0 V 9.3793612 c 0,-0.055 -0.045,-0.1 -0.1,-0.1 h -6 c -0.055,0 -0.1,0.045 -0.1,0.1 v 2.8999998 c 0,0.1 0.1,0 0,0 h -5.799997 c -0.1,0 0,0.1 0,0 V 9.3793612 c 0,-0.055 -0.045,-0.1 -0.1,-0.1 h -6 c -0.055,0 -0.1,0.045 -0.1,0.1 v 2.8999998 c 0,0.1 0.1,0 0,0 h -5.8 c -0.1,0 0,0.1 0,0 V 9.3793612 c 0,-0.055 -0.045,-0.1 -0.1,-0.1 h -6 c -0.055,0 -0.1,0.045 -0.1,0.1 v 2.8999998 c 0,0.1 0.1,0 0,0 h -5.8 c -0.1,0 0,0.1 0,0 V 9.3793612 c 0,-0.055 -0.045,-0.1 -0.1,-0.1 h -6 c -0.055,0 -0.1,0.045 -0.1,0.1 v 2.8999998 c 0,0.1 0.1,0 0,0 h -5.8 c -0.1,0 0,0.1 0,0 V 9.3793612 c 0,-0.055 -0.045,-0.1 -0.1,-0.1 h -6 c -0.055,0 -0.1,0.045 -0.1,0.1 v 2.8999998 c 0,0.1 0.1,0 0,0 h -5.8 c -0.1,0 0,0.1 0,0 V 9.3793612 c 0,-0.055 -0.045,-0.1 -0.1,-0.1 h -6 c -0.055,0 -0.1,0.045 -0.1,0.1 v 2.8999998 c 0,0.1 0.1,0 0,0 h -5.8 c -0.1,0 0,0.1 0,0 V 9.3793612 c 0,-0.055 -0.045,-0.1 -0.1,-0.1 h -6 c -0.055,0 -0.1,0.045 -0.1,0.1 v 2.8999998 c 0,0.1 0.1,0 0,0 h -5.8 c -0.1,0 0,0.1 0,0 V 9.3793612 c 0,-0.055 -0.045,-0.1 -0.1,-0.1 h -6 c -0.055,0 -0.1,0.045 -0.1,0.1 v 2.8999998 c 0,0.1 0.1,0 0,0 h -6.4 c -0.055,0 -0.1,0.045 -0.1,0.1 v 6.9 c 0,0.1 0.1,0 0,0 h -2.9 c -0.055,0 -0.1,0.045 -0.1,0.1 v 6 c 0,0.055 0.045,0.1 0.1,0.1 h 2.9 c 0.1,0 0,-0.1 0,0 v 5.8 c 0,0.1 0.1,0 0,0 h -2.9 c -0.055,0 -0.1,0.045 -0.1,0.1 v 6 c 0,0.055 0.045,0.1 0.1,0.1 h 2.9 c 0.1,0 0,-0.1 0,0 v 5.8 c 0,0.1 0.1,0 0,0 h -2.9 c -0.055,0 -0.1,0.045 -0.1,0.1 v 6 c 0,0.055 0.045,0.1 0.1,0.1 h 2.9 c 0.1,0 0,-0.1 0,0 v 5.8 c 0,0.1 0.1,0 0,0 h -2.9 c -0.055,0 -0.1,0.045 -0.1,0.1 v 6 c 0,0.055 0.045,0.1 0.1,0.1 h 2.9 c 0.1,0 0,-0.1 0,0 v 5.8 c 0,0.1 0.1,0 0,0 h -2.9 c -0.055,0 -0.1,0.045 -0.1,0.1 v 6 c 0,0.055 0.045,0.1 0.1,0.1 h 2.9 c 0.1,0 0,-0.1 0,0 v 5.8 c 0,0.1 0.1,0 0,0 h -2.9 c -0.055,0 -0.1,0.045 -0.1,0.1 v 6 c 0,0.055 0.045,0.1 0.1,0.1 h 2.9 c 0.1,0 0,-0.1 0,0 v 6.9 c 0,0.055 0.045,0.1 0.1,0.1 z"
       stroke="rgb(0,0,0)"
       stroke-width="0.2"
       id="path2319"
       style="stroke:#ff0000;stroke-opacity:1" /></g><rect
     style="fill:none;stroke:#ff0000;stroke-width:0.213;stroke-opacity:1"
     id="rect7777"
     width="20.899"
     height="7.9270267"
     x="23.78108"
     y="251.50293" /><rect
     style="fill:none;stroke:#ff0000;stroke-width:0.213;stroke-opacity:1"
     id="rect7831"
     width="55.128864"
     height="21.258844"
     x="147.73096"
     y="203.58046" /><g
     transform="matrix(0.02196977,0,0,-0.026871,18.837394,148.22491)"
     fill="#000000"
     stroke="none"
     id="g6963" /><circle
     style="fill:none;stroke:#ff0000;stroke-width:0.213;stroke-opacity:1"
     id="path940"
     cx="176.01602"
     cy="141.78569"
     r="20" /></svg>
